<svg width="1200" height="320" viewBox="150 -0.1 100 111" class="css-1j8o68f">
  <g id="SvgjsG12868" featurekey="symbolContainer" transform="matrix(0.9,0,0,0.9,0,0)" fill="#ffc93c">
    <rect xmlns="http://www.w3.org/2000/svg" width="110" height="123" rx="10" ry="10"></rect>
  </g>
  <g id="SvgjsG12869" featurekey="monogramFeature-0" transform="matrix(1.9928957648380214,0,0,1.9928957648380214,9.018008558445405,-21.74415435176487)" fill="#4b1e8f">
    <path d="M37.825 23.167 c0.62982 0.50848 0.22805 1.6833 -0.7908 2.9366 c-1.0157 1.268 -2.6504 2.6561 -4.3626 3.9469 s-3.4893 2.5073 -4.789 3.4327 c-1.3118 0.91842 -2.1018 1.5444 -2.119 1.4395 c-0.21545 -0.56947 -0.94572 -1.2743 -1.9855 -1.5877 c-0.50719 -0.16336 -1.0589 -0.2441 -1.5883 -0.23648 c-0.48557 -0.008262 -1.1504 0.13096 -1.7872 0.40172 c-1.3004 0.53197 -2.6961 1.6379 -3.8083 3.1035 c-1.1282 1.4682 -1.9455 3.2434 -2.3561 5.0929 c-0.39914 1.8502 -0.3661 3.7124 0.15 5.2162 c0.24152 0.76014 0.63876 1.4383 1.1745 2.1101 c0.54785 0.654 1.2476 1.2641 2.072 1.7675 c1.6589 1.0163 3.7092 1.5934 5.9026 1.6137 c2.1832 0.033047 4.4515 -0.47795 6.5232 -1.4917 c0.88284 -0.42263 2.0987 0.2949 2.9497 1.3601 c0.83706 1.0468 1.1708 2.5709 0.067386 3.4906 c-2.5728 1.8698 -5.6146 3.1778 -8.8782 3.7136 c-3.244 0.54662 -6.789 0.30445 -10.106 -0.96546 c-1.6613 -0.63306 -3.2789 -1.5356 -4.7509 -2.7235 c-1.4567 -1.1949 -2.7889 -2.6904 -3.7614 -4.3842 c-1.9805 -3.3889 -2.6586 -7.1652 -2.5722 -10.742 c0.10998 -3.5936 0.996 -7.1472 2.6211 -10.405 c1.6277 -3.2554 4.0047 -6.3264 7.3488 -8.6982 c1.6779 -1.1822 3.5522 -2.1508 5.7252 -2.7991 c2.1279 -0.63306 4.3397 -0.89874 6.5532 -0.80526 c2.2131 0.095976 4.4383 0.54533 6.5796 1.4116 c2.1387 0.85926 4.1999 2.1311 5.9884 3.8007 z"></path> 
  </g>
  <g id="SvgjsG12870" featurekey="nameFeature-0" transform="matrix(1.7860994182402683,0,0,1.7860994182402683,116.14223684275844,8.567518984402021)" fill="#4b1e8f">
    <path d="M20.322 27.345 c1.213 0 2.196 0.98328 2.196 2.196 c0 5.7668 -4.692 10.459 -10.459 10.459 s-10.459 -4.692 -10.459 -10.459 l0 -7.0824 c0 -5.7668 4.692 -10.459 10.459 -10.459 s10.459 4.692 10.459 10.459 c0 1.2128 -0.98328 2.196 -2.196 2.196 s-2.196 -0.98328 -2.196 -2.196 c0 -3.3452 -2.7215 -6.0668 -6.0668 -6.0668 s-6.0668 2.7215 -6.0668 6.0668 l0 7.0824 c0 3.3452 2.7215 6.0668 6.0668 6.0668 s6.0668 -2.7215 6.0668 -6.0668 c0 -1.2128 0.98328 -2.196 2.196 -2.196 z M26.65 12 c1.213 0 2.196 0.98328 2.196 2.196 l0 23.608 c0 1.2128 -0.98328 2.196 -2.196 2.196 s-2.196 -0.98328 -2.196 -2.196 l0 -23.608 c0 -1.2128 0.98328 -2.196 2.196 -2.196 z M51.623000000000005 37.0782 c0.33848 0.96712 -0.036836 2.0399 -0.90456 2.5848 c-0.86744 0.54516 -1.9965 0.41776 -2.7212 -0.30664 l-8.2628 -8.2628 c-0.85784 -0.85756 -0.85784 -2.248 0 -3.1056 c0.85756 -0.85756 2.248 -0.85756 3.1056 0 l1.4582 1.4582 l-3.0108 -8.6028 l-6.19 17.686 c-0.3168 0.90476 -1.1656 1.4711 -2.0728 1.4711 c-0.24074 0.00027344 -0.48532 -0.039805 -0.72552 -0.12379 c-1.1447 -0.40052 -1.7478 -1.6534 -1.3473 -2.798 l8.2628 -23.608 c0.30828 -0.88092 1.1395 -1.4706 2.0728 -1.4706 s1.7645 0.58964 2.0728 1.4706 z M61.976 19.412 c5.6764 0 10.294 4.6176 10.294 10.294 s-4.6176 10.294 -10.294 10.294 s-10.294 -4.6176 -10.294 -10.294 s4.6176 -10.294 10.294 -10.294 z M61.976 35.608 c3.2543 0 5.902 -2.6476 5.902 -5.902 s-2.6476 -5.902 -5.902 -5.902 s-5.902 2.6476 -5.902 5.902 s2.6476 5.902 5.902 5.902 z M88.684 33.8792 c0.85756 -0.85756 2.2482 -0.85772 3.1058 0.00011719 c0.85784 0.85756 0.85784 2.248 0 3.1056 c-1.9443 1.9443 -4.5292 3.0149 -7.2792 3.0149 c-5.6764 0 -10.294 -4.6176 -10.294 -10.294 s4.6176 -10.294 10.294 -10.294 c2.7498 0 5.3348 1.0706 7.2788 3.0152 c0.85784 0.85756 0.85784 2.248 0 3.1056 c-0.85756 0.85756 -2.248 0.85756 -3.1056 0 c-1.1145 -1.1148 -2.5968 -1.7286 -4.1732 -1.7286 c-3.2543 0 -5.902 2.6476 -5.902 5.902 s2.6476 5.902 5.902 5.902 c1.5765 0 3.0586 -0.6138 4.1732 -1.7286 z M111.582 19.412 c1.2128 0 2.196 0.98328 2.196 2.196 l0 16.196 c0 1.2128 -0.98328 2.196 -2.196 2.196 c-1.1071 0 -2.0201 -0.81968 -2.1716 -1.885 c-1.677 1.1856 -3.721 1.885 -5.9264 1.885 c-5.6764 0 -10.294 -4.6176 -10.294 -10.294 s4.6176 -10.294 10.294 -10.294 c2.2054 0 4.2492 0.69944 5.9264 1.885 c0.15152 -1.0654 1.0645 -1.885 2.1716 -1.885 z M103.484 35.608 c3.2543 0 5.902 -2.6476 5.902 -5.902 s-2.6476 -5.902 -5.902 -5.902 s-5.902 2.6476 -5.902 5.902 s2.6476 5.902 5.902 5.902 z M125.991 19.467 c5.6612 0 10.267 4.6056 10.267 10.267 s-4.6056 10.267 -10.267 10.267 c-2.1952 0 -4.23 -0.69476 -5.9008 -1.873 c-0.15676 1.0593 -1.067 1.873 -2.1697 1.873 c-1.2128 0 -2.196 -0.98328 -2.196 -2.196 l0 -23.608 c0 -1.2128 0.98328 -2.196 2.196 -2.196 s2.196 0.98328 2.196 2.196 l0 7.1246 c1.6657 -1.1667 3.6908 -1.8541 5.8744 -1.8541 z M125.991 35.608 c3.2392 0 5.8744 -2.6353 5.8744 -5.8744 s-2.6353 -5.8744 -5.8744 -5.8744 s-5.8744 2.6353 -5.8744 5.8744 s2.6353 5.8744 5.8744 5.8744 z M152.121 27.509999999999998 c3.4434 0 6.2452 2.8016 6.2452 6.2452 s-2.8016 6.2452 -6.2452 6.2452 l-8.098 0 c-1.2128 0 -2.196 -0.98328 -2.196 -2.196 s0.98328 -2.196 2.196 -2.196 l8.098 0 c1.0217 0 1.8529 -0.8312 1.8529 -1.8529 s-0.8312 -1.8529 -1.8529 -1.8529 l-8.098 0 c-3.4434 0 -6.2452 -2.8016 -6.2452 -6.2452 s2.8016 -6.2452 6.2452 -6.2452 l8.098 0 c1.2128 0 2.196 0.98328 2.196 2.196 s-0.98328 2.196 -2.196 2.196 l-8.098 0 c-1.0217 0 -1.8529 0.8312 -1.8529 1.8529 s0.8312 1.8529 1.8529 1.8529 l8.098 0 z"></path>
  </g>
</svg>